<svg xmlns="http://www.w3.org/2000/svg" width="17.459" height="9.653" viewBox="0 0 17.459 9.653">
  <g id="Group_3" data-name="Group 3" transform="translate(-3619.173 584.467) rotate(-90)">
    <path id="Path_3" data-name="Path 3" d="M583.717,3624.75a.748.748,0,0,1-.53-.22l-3.546-3.546-3.546,3.546a.75.75,0,0,1-1.061-1.061l4.077-4.077a.75.75,0,0,1,1.061,0l4.077,4.077a.75.75,0,0,1-.53,1.28Z" fill="#fff"/>
    <path id="Path_4" data-name="Path 4" d="M579.64,3636.632a.75.75,0,0,1-.75-.75v-15.959a.75.75,0,0,1,1.5,0v15.959A.75.75,0,0,1,579.64,3636.632Z" fill="#fff"/>
  </g>
</svg>
