<svg xmlns="http://www.w3.org/2000/svg" width="52" height="52" viewBox="0 0 52 52">
  <g id="Group_15" data-name="Group 15" transform="translate(-224 -245)">
    <rect id="Rectangle_119" data-name="Rectangle 119" width="52" height="52" transform="translate(224 245)" fill="#fff"/>
    <path id="Icon_awesome-phone" data-name="Icon awesome-phone" d="M25.052,1.249,19.772.03a1.226,1.226,0,0,0-1.4.706L15.938,6.423a1.215,1.215,0,0,0,.35,1.422l3.077,2.518a18.818,18.818,0,0,1-9,9L7.85,16.283a1.217,1.217,0,0,0-1.422-.35L.741,18.37a1.233,1.233,0,0,0-.711,1.4l1.219,5.281A1.218,1.218,0,0,0,2.437,26,23.557,23.557,0,0,0,26,2.437,1.217,1.217,0,0,0,25.052,1.249Z" transform="translate(268.512 266.998) rotate(120)" fill="#e6670a"/>
  </g>
</svg>
